<svg id="visual" viewBox="0 0 900 600" width="900" height="600" xmlns="http://www.w3.org/2000/svg" xmlns:xlink="http://www.w3.org/1999/xlink" version="1.1"><g stroke-width="1" stroke-linejoin="bevel"><path d="M419 294.1L381 316L420 305.1Z" fill="#00101c" stroke="#00101c"></path><path d="M363 315.9L376 316.7L339 295.3Z" fill="#277297" stroke="#277297"></path><path d="M339 295.3L376 316.7L381 316Z" fill="#277297" stroke="#277297"></path><path d="M376 316.7L372 346.9L381 316Z" fill="#277297" stroke="#277297"></path><path d="M381 316L372 346.9L420 305.1Z" fill="#112e42" stroke="#112e42"></path><path d="M363 315.9L372 346.9L376 316.7Z" fill="#112e42" stroke="#112e42"></path><path d="M363 315.9L350 328.7L372 346.9Z" fill="#081a28" stroke="#081a28"></path><path d="M369 240.1L339 295.3L381 316Z" fill="#277297" stroke="#277297"></path><path d="M363 315.9L333 315.7L350 328.7Z" fill="#246688" stroke="#246688"></path><path d="M339 295.3L333 315.7L363 315.9Z" fill="#297ea6" stroke="#297ea6"></path><path d="M350 328.7L346 380.9L372 346.9Z" fill="#19435d" stroke="#19435d"></path><path d="M419 294.1L369 240.1L381 316Z" fill="#15384f" stroke="#15384f"></path><path d="M403 210L366 235.1L369 240.1Z" fill="#0c2435" stroke="#0c2435"></path><path d="M369 240.1L337 221L339 295.3Z" fill="#277297" stroke="#277297"></path><path d="M435 404.6L469 323L420 305.1Z" fill="#277297" stroke="#277297"></path><path d="M420 305.1L469 323L419 294.1Z" fill="#1d4e6b" stroke="#1d4e6b"></path><path d="M419 294.1L403 210L369 240.1Z" fill="#112e42" stroke="#112e42"></path><path d="M456 220.1L403 210L419 294.1Z" fill="#112e42" stroke="#112e42"></path><path d="M333 315.7L346 380.9L350 328.7Z" fill="#1d4e6b" stroke="#1d4e6b"></path><path d="M372 346.9L435 404.6L420 305.1Z" fill="#297ea6" stroke="#297ea6"></path><path d="M488 235L456 220.1L419 294.1Z" fill="#19435d" stroke="#19435d"></path><path d="M341 181.1L337 221L366 235.1Z" fill="#1d4e6b" stroke="#1d4e6b"></path><path d="M366 235.1L337 221L369 240.1Z" fill="#00101c" stroke="#00101c"></path><path d="M339 295.3L292 317L333 315.7Z" fill="#0c2435" stroke="#0c2435"></path><path d="M346 380.9L387 404.4L372 346.9Z" fill="#112e42" stroke="#112e42"></path><path d="M346 380.9L354 398.7L387 404.4Z" fill="#00101c" stroke="#00101c"></path><path d="M337 221L292 317L339 295.3Z" fill="#0c2435" stroke="#0c2435"></path><path d="M333 315.7L292 317L346 380.9Z" fill="#205a7a" stroke="#205a7a"></path><path d="M346 380.9L306 421.6L354 398.7Z" fill="#15384f" stroke="#15384f"></path><path d="M387 404.4L435 404.6L372 346.9Z" fill="#00101c" stroke="#00101c"></path><path d="M469 323L488 235L419 294.1Z" fill="#277297" stroke="#277297"></path><path d="M435 404.6L493 371.4L469 323Z" fill="#19435d" stroke="#19435d"></path><path d="M469 323L500 235.3L488 235Z" fill="#081a28" stroke="#081a28"></path><path d="M566 254.3L500 235.3L469 323Z" fill="#297ea6" stroke="#297ea6"></path><path d="M488 235L487 214.3L456 220.1Z" fill="#277297" stroke="#277297"></path><path d="M500 235.3L487 214.3L488 235Z" fill="#297ea6" stroke="#297ea6"></path><path d="M408 146.4L364 171.4L403 210Z" fill="#277297" stroke="#277297"></path><path d="M441 458.6L450 415.7L435 404.6Z" fill="#112e42" stroke="#112e42"></path><path d="M435 404.6L450 415.7L493 371.4Z" fill="#1d4e6b" stroke="#1d4e6b"></path><path d="M441 458.6L435 404.6L387 404.4Z" fill="#081a28" stroke="#081a28"></path><path d="M364 171.4L366 235.1L403 210Z" fill="#205a7a" stroke="#205a7a"></path><path d="M364 171.4L341 181.1L366 235.1Z" fill="#297ea6" stroke="#297ea6"></path><path d="M222 318.9L262 332.9L292 317Z" fill="#19435d" stroke="#19435d"></path><path d="M476 178.3L403 210L456 220.1Z" fill="#277297" stroke="#277297"></path><path d="M450 415.7L500 395.4L493 371.4Z" fill="#277297" stroke="#277297"></path><path d="M493 371.4L530 363.7L469 323Z" fill="#19435d" stroke="#19435d"></path><path d="M232 244.1L292 317L337 221Z" fill="#15384f" stroke="#15384f"></path><path d="M292 317L268 391.4L346 380.9Z" fill="#112e42" stroke="#112e42"></path><path d="M306 421.6L371 440.3L354 398.7Z" fill="#246688" stroke="#246688"></path><path d="M354 398.7L371 440.3L387 404.4Z" fill="#277297" stroke="#277297"></path><path d="M500 395.4L530 363.7L493 371.4Z" fill="#15384f" stroke="#15384f"></path><path d="M486 174.1L476 178.3L487 214.3Z" fill="#00101c" stroke="#00101c"></path><path d="M487 214.3L476 178.3L456 220.1Z" fill="#205a7a" stroke="#205a7a"></path><path d="M450 415.7L488 419.3L500 395.4Z" fill="#0c2435" stroke="#0c2435"></path><path d="M500 395.4L550 437.3L530 363.7Z" fill="#0c2435" stroke="#0c2435"></path><path d="M441 458.6L488 419.3L450 415.7Z" fill="#00101c" stroke="#00101c"></path><path d="M268 391.4L306 421.6L346 380.9Z" fill="#246688" stroke="#246688"></path><path d="M512 187.4L486 174.1L487 214.3Z" fill="#112e42" stroke="#112e42"></path><path d="M476 178.3L408 146.4L403 210Z" fill="#205a7a" stroke="#205a7a"></path><path d="M512 187.4L487 214.3L534 205Z" fill="#297ea6" stroke="#297ea6"></path><path d="M455 129.7L408 146.4L476 178.3Z" fill="#277297" stroke="#277297"></path><path d="M279 185.3L337 221L341 181.1Z" fill="#205a7a" stroke="#205a7a"></path><path d="M262 332.9L268 391.4L292 317Z" fill="#00101c" stroke="#00101c"></path><path d="M534 205L487 214.3L500 235.3Z" fill="#0c2435" stroke="#0c2435"></path><path d="M371 440.3L441 458.6L387 404.4Z" fill="#1d4e6b" stroke="#1d4e6b"></path><path d="M512 187.4L496 168.7L486 174.1Z" fill="#297ea6" stroke="#297ea6"></path><path d="M475 130.9L455 129.7L476 178.3Z" fill="#19435d" stroke="#19435d"></path><path d="M279 185.3L341 181.1L273 142.4Z" fill="#277297" stroke="#277297"></path><path d="M279 185.3L269 198.1L337 221Z" fill="#0c2435" stroke="#0c2435"></path><path d="M355 131.6L341 181.1L364 171.4Z" fill="#205a7a" stroke="#205a7a"></path><path d="M557 220.3L534 205L500 235.3Z" fill="#112e42" stroke="#112e42"></path><path d="M552 173.6L492 143.6L496 168.7Z" fill="#081a28" stroke="#081a28"></path><path d="M575 333.7L566 254.3L469 323Z" fill="#0c2435" stroke="#0c2435"></path><path d="M222 318.9L229 346.6L262 332.9Z" fill="#0c2435" stroke="#0c2435"></path><path d="M262 332.9L229 346.6L268 391.4Z" fill="#277297" stroke="#277297"></path><path d="M388 115.9L355 131.6L408 146.4Z" fill="#297ea6" stroke="#297ea6"></path><path d="M408 146.4L355 131.6L364 171.4Z" fill="#246688" stroke="#246688"></path><path d="M229 229L232 244.1L269 198.1Z" fill="#19435d" stroke="#19435d"></path><path d="M269 198.1L232 244.1L337 221Z" fill="#15384f" stroke="#15384f"></path><path d="M232 244.1L222 318.9L292 317Z" fill="#15384f" stroke="#15384f"></path><path d="M566 254.3L557 220.3L500 235.3Z" fill="#19435d" stroke="#19435d"></path><path d="M552 173.6L496 168.7L512 187.4Z" fill="#246688" stroke="#246688"></path><path d="M577 336.9L575 333.7L530 363.7Z" fill="#297ea6" stroke="#297ea6"></path><path d="M530 363.7L575 333.7L469 323Z" fill="#15384f" stroke="#15384f"></path><path d="M492 143.6L486 174.1L496 168.7Z" fill="#297ea6" stroke="#297ea6"></path><path d="M492 143.6L476 178.3L486 174.1Z" fill="#112e42" stroke="#112e42"></path><path d="M577 402.4L577 336.9L530 363.7Z" fill="#297ea6" stroke="#297ea6"></path><path d="M575 333.7L650 286.7L566 254.3Z" fill="#00101c" stroke="#00101c"></path><path d="M282 466.1L310 461.6L306 421.6Z" fill="#0c2435" stroke="#0c2435"></path><path d="M306 421.6L310 461.6L371 440.3Z" fill="#1d4e6b" stroke="#1d4e6b"></path><path d="M371 440.3L401 515.6L441 458.6Z" fill="#205a7a" stroke="#205a7a"></path><path d="M258 444.7L306 421.6L268 391.4Z" fill="#1d4e6b" stroke="#1d4e6b"></path><path d="M455 129.7L416 119.3L408 146.4Z" fill="#112e42" stroke="#112e42"></path><path d="M552 173.6L512 187.4L534 205Z" fill="#297ea6" stroke="#297ea6"></path><path d="M197 169.3L229 229L269 198.1Z" fill="#19435d" stroke="#19435d"></path><path d="M232 244.1L182 274.1L222 318.9Z" fill="#246688" stroke="#246688"></path><path d="M416 119.3L388 115.9L408 146.4Z" fill="#246688" stroke="#246688"></path><path d="M492 143.6L475 130.9L476 178.3Z" fill="#112e42" stroke="#112e42"></path><path d="M397 82.7L388 115.9L416 119.3Z" fill="#112e42" stroke="#112e42"></path><path d="M441 458.6L498 464.7L488 419.3Z" fill="#00101c" stroke="#00101c"></path><path d="M488 419.3L550 437.3L500 395.4Z" fill="#0c2435" stroke="#0c2435"></path><path d="M494 478.7L498 464.7L441 458.6Z" fill="#00101c" stroke="#00101c"></path><path d="M566 254.3L568 213L557 220.3Z" fill="#297ea6" stroke="#297ea6"></path><path d="M557 220.3L568 213L534 205Z" fill="#1d4e6b" stroke="#1d4e6b"></path><path d="M588 205L568 213L566 254.3Z" fill="#15384f" stroke="#15384f"></path><path d="M228 442.4L258 444.7L268 391.4Z" fill="#1d4e6b" stroke="#1d4e6b"></path><path d="M568 213L552 173.6L534 205Z" fill="#112e42" stroke="#112e42"></path><path d="M492 143.6L513 112.4L475 130.9Z" fill="#1d4e6b" stroke="#1d4e6b"></path><path d="M258 444.7L282 466.1L306 421.6Z" fill="#297ea6" stroke="#297ea6"></path><path d="M468 502.1L494 478.7L441 458.6Z" fill="#15384f" stroke="#15384f"></path><path d="M330 500.3L371 440.3L310 461.6Z" fill="#246688" stroke="#246688"></path><path d="M498 464.7L550 437.3L488 419.3Z" fill="#205a7a" stroke="#205a7a"></path><path d="M355 131.6L273 142.4L341 181.1Z" fill="#0c2435" stroke="#0c2435"></path><path d="M279 185.3L273 142.4L269 198.1Z" fill="#246688" stroke="#246688"></path><path d="M271 130.6L273 142.4L355 131.6Z" fill="#19435d" stroke="#19435d"></path><path d="M494 478.7L550 437.3L498 464.7Z" fill="#277297" stroke="#277297"></path><path d="M550 437.3L577 402.4L530 363.7Z" fill="#297ea6" stroke="#297ea6"></path><path d="M197 169.3L202 235L229 229Z" fill="#277297" stroke="#277297"></path><path d="M229 229L202 235L232 244.1Z" fill="#246688" stroke="#246688"></path><path d="M296 504.3L330 500.3L310 461.6Z" fill="#1d4e6b" stroke="#1d4e6b"></path><path d="M455 517.6L468 502.1L441 458.6Z" fill="#15384f" stroke="#15384f"></path><path d="M607 522.6L606 417.9L550 437.3Z" fill="#246688" stroke="#246688"></path><path d="M320 85.9L271 130.6L355 131.6Z" fill="#112e42" stroke="#112e42"></path><path d="M273 142.4L197 169.3L269 198.1Z" fill="#15384f" stroke="#15384f"></path><path d="M643 229L588 205L566 254.3Z" fill="#081a28" stroke="#081a28"></path><path d="M568 213L588 205L552 173.6Z" fill="#19435d" stroke="#19435d"></path><path d="M650 286.7L575 333.7L577 336.9Z" fill="#112e42" stroke="#112e42"></path><path d="M330 500.3L401 515.6L371 440.3Z" fill="#277297" stroke="#277297"></path><path d="M577 402.4L604 365.9L577 336.9Z" fill="#0c2435" stroke="#0c2435"></path><path d="M376 82.4L371 87.4L388 115.9Z" fill="#00101c" stroke="#00101c"></path><path d="M388 115.9L371 87.4L355 131.6Z" fill="#205a7a" stroke="#205a7a"></path><path d="M397 82.7L416 119.3L424 58.7Z" fill="#1d4e6b" stroke="#1d4e6b"></path><path d="M202 235L182 274.1L232 244.1Z" fill="#0c2435" stroke="#0c2435"></path><path d="M222 318.9L142 361.6L229 346.6Z" fill="#19435d" stroke="#19435d"></path><path d="M229 346.6L228 442.4L268 391.4Z" fill="#15384f" stroke="#15384f"></path><path d="M474 83.7L455 129.7L475 130.9Z" fill="#00101c" stroke="#00101c"></path><path d="M456 72.9L416 119.3L455 129.7Z" fill="#297ea6" stroke="#297ea6"></path><path d="M397 82.7L376 82.4L388 115.9Z" fill="#00101c" stroke="#00101c"></path><path d="M371 87.4L320 85.9L355 131.6Z" fill="#112e42" stroke="#112e42"></path><path d="M258 444.7L259 527.3L282 466.1Z" fill="#277297" stroke="#277297"></path><path d="M282 466.1L296 504.3L310 461.6Z" fill="#00101c" stroke="#00101c"></path><path d="M193 439.9L228 442.4L229 346.6Z" fill="#00101c" stroke="#00101c"></path><path d="M561 116.9L513 112.4L552 173.6Z" fill="#00101c" stroke="#00101c"></path><path d="M552 173.6L513 112.4L492 143.6Z" fill="#19435d" stroke="#19435d"></path><path d="M425 523.4L455 517.6L441 458.6Z" fill="#15384f" stroke="#15384f"></path><path d="M468 502.1L511 532.4L494 478.7Z" fill="#0c2435" stroke="#0c2435"></path><path d="M391 556.3L425 523.4L401 515.6Z" fill="#1d4e6b" stroke="#1d4e6b"></path><path d="M401 515.6L425 523.4L441 458.6Z" fill="#277297" stroke="#277297"></path><path d="M259 527.3L296 504.3L282 466.1Z" fill="#277297" stroke="#277297"></path><path d="M330 500.3L391 556.3L401 515.6Z" fill="#00101c" stroke="#00101c"></path><path d="M606 417.9L611 382.6L577 402.4Z" fill="#297ea6" stroke="#297ea6"></path><path d="M577 402.4L611 382.6L604 365.9Z" fill="#1d4e6b" stroke="#1d4e6b"></path><path d="M643 229L603 172.7L588 205Z" fill="#15384f" stroke="#15384f"></path><path d="M376 82.4L320 85.9L371 87.4Z" fill="#1d4e6b" stroke="#1d4e6b"></path><path d="M513 112.4L474 83.7L475 130.9Z" fill="#081a28" stroke="#081a28"></path><path d="M397 82.7L424 58.7L376 82.4Z" fill="#205a7a" stroke="#205a7a"></path><path d="M474 83.7L456 72.9L455 129.7Z" fill="#112e42" stroke="#112e42"></path><path d="M300 34.6L297 36.6L320 85.9Z" fill="#00101c" stroke="#00101c"></path><path d="M550 437.3L606 417.9L577 402.4Z" fill="#00101c" stroke="#00101c"></path><path d="M511 532.4L550 437.3L494 478.7Z" fill="#277297" stroke="#277297"></path><path d="M243 113.7L197 169.3L273 142.4Z" fill="#00101c" stroke="#00101c"></path><path d="M102 225.3L139 301.9L182 274.1Z" fill="#246688" stroke="#246688"></path><path d="M243 113.7L273 142.4L271 130.6Z" fill="#0c2435" stroke="#0c2435"></path><path d="M650 286.7L577 336.9L604 365.9Z" fill="#00101c" stroke="#00101c"></path><path d="M588 205L603 172.7L552 173.6Z" fill="#19435d" stroke="#19435d"></path><path d="M502 39.6L474 61.9L474 83.7Z" fill="#15384f" stroke="#15384f"></path><path d="M286 81.6L243 113.7L271 130.6Z" fill="#112e42" stroke="#112e42"></path><path d="M456 72.9L424 58.7L416 119.3Z" fill="#081a28" stroke="#081a28"></path><path d="M598 147.6L561 116.9L552 173.6Z" fill="#0c2435" stroke="#0c2435"></path><path d="M474 83.7L474 61.9L456 72.9Z" fill="#19435d" stroke="#19435d"></path><path d="M456 72.9L474 61.9L424 58.7Z" fill="#246688" stroke="#246688"></path><path d="M320 85.9L286 81.6L271 130.6Z" fill="#19435d" stroke="#19435d"></path><path d="M297 36.6L286 81.6L320 85.9Z" fill="#15384f" stroke="#15384f"></path><path d="M142 361.6L193 439.9L229 346.6Z" fill="#19435d" stroke="#19435d"></path><path d="M208 517.1L259 527.3L258 444.7Z" fill="#081a28" stroke="#081a28"></path><path d="M502 39.6L474 83.7L513 112.4Z" fill="#246688" stroke="#246688"></path><path d="M603 172.7L598 147.6L552 173.6Z" fill="#1d4e6b" stroke="#1d4e6b"></path><path d="M642 374.9L604 365.9L611 382.6Z" fill="#297ea6" stroke="#297ea6"></path><path d="M642 374.9L650 286.7L604 365.9Z" fill="#112e42" stroke="#112e42"></path><path d="M603 172.7L643 161.7L598 147.6Z" fill="#081a28" stroke="#081a28"></path><path d="M639 391.6L642 374.9L611 382.6Z" fill="#0c2435" stroke="#0c2435"></path><path d="M306 544.3L391 556.3L330 500.3Z" fill="#19435d" stroke="#19435d"></path><path d="M425 523.4L462 558.4L455 517.6Z" fill="#246688" stroke="#246688"></path><path d="M656 270.4L643 229L566 254.3Z" fill="#277297" stroke="#277297"></path><path d="M462 558.4L511 532.4L455 517.6Z" fill="#15384f" stroke="#15384f"></path><path d="M455 517.6L511 532.4L468 502.1Z" fill="#19435d" stroke="#19435d"></path><path d="M606 417.9L639 391.6L611 382.6Z" fill="#297ea6" stroke="#297ea6"></path><path d="M663 415.4L639 391.6L606 417.9Z" fill="#277297" stroke="#277297"></path><path d="M102 225.3L182 274.1L202 235Z" fill="#205a7a" stroke="#205a7a"></path><path d="M182 274.1L139 301.9L222 318.9Z" fill="#205a7a" stroke="#205a7a"></path><path d="M259 527.3L306 544.3L296 504.3Z" fill="#112e42" stroke="#112e42"></path><path d="M296 504.3L306 544.3L330 500.3Z" fill="#112e42" stroke="#112e42"></path><path d="M661 266.9L656 270.4L670 290.3Z" fill="#15384f" stroke="#15384f"></path><path d="M650 286.7L656 270.4L566 254.3Z" fill="#246688" stroke="#246688"></path><path d="M139 301.9L142 361.6L222 318.9Z" fill="#277297" stroke="#277297"></path><path d="M391 556.3L462 558.4L425 523.4Z" fill="#19435d" stroke="#19435d"></path><path d="M208 517.1L258 444.7L228 442.4Z" fill="#246688" stroke="#246688"></path><path d="M243 113.7L183 146.4L197 169.3Z" fill="#205a7a" stroke="#205a7a"></path><path d="M197 169.3L148 175.7L202 235Z" fill="#0c2435" stroke="#0c2435"></path><path d="M181 138.4L183 146.4L243 113.7Z" fill="#205a7a" stroke="#205a7a"></path><path d="M670 290.3L656 270.4L650 286.7Z" fill="#205a7a" stroke="#205a7a"></path><path d="M656 270.4L661 266.9L643 229Z" fill="#081a28" stroke="#081a28"></path><path d="M162 90.4L181 138.4L243 113.7Z" fill="#246688" stroke="#246688"></path><path d="M183 146.4L148 175.7L197 169.3Z" fill="#205a7a" stroke="#205a7a"></path><path d="M678 309.1L670 290.3L650 286.7Z" fill="#112e42" stroke="#112e42"></path><path d="M678 309.1L650 286.7L642 374.9Z" fill="#277297" stroke="#277297"></path><path d="M119 346.7L124 348.7L139 301.9Z" fill="#1d4e6b" stroke="#1d4e6b"></path><path d="M139 301.9L124 348.7L142 361.6Z" fill="#15384f" stroke="#15384f"></path><path d="M156 469.4L187 485.3L193 439.9Z" fill="#112e42" stroke="#112e42"></path><path d="M222 537.3L254 540.3L259 527.3Z" fill="#277297" stroke="#277297"></path><path d="M187 485.3L228 442.4L193 439.9Z" fill="#1d4e6b" stroke="#1d4e6b"></path><path d="M259 527.3L254 540.3L306 544.3Z" fill="#19435d" stroke="#19435d"></path><path d="M352 613.1L409 600L391 556.3Z" fill="#081a28" stroke="#081a28"></path><path d="M156 469.4L193 439.9L97 420.6Z" fill="#205a7a" stroke="#205a7a"></path><path d="M181 138.4L148 175.7L183 146.4Z" fill="#297ea6" stroke="#297ea6"></path><path d="M678 362L678 309.1L642 374.9Z" fill="#112e42" stroke="#112e42"></path><path d="M700 228.1L643 229L661 266.9Z" fill="#297ea6" stroke="#297ea6"></path><path d="M561 116.9L502 39.6L513 112.4Z" fill="#15384f" stroke="#15384f"></path><path d="M489 -12.1L405 0L424 58.7Z" fill="#0c2435" stroke="#0c2435"></path><path d="M300 34.6L320 85.9L376 82.4Z" fill="#112e42" stroke="#112e42"></path><path d="M508 0L502 39.6L515 0Z" fill="#1d4e6b" stroke="#1d4e6b"></path><path d="M643 229L643 161.7L603 172.7Z" fill="#00101c" stroke="#00101c"></path><path d="M586 0L551 0L561 116.9Z" fill="#205a7a" stroke="#205a7a"></path><path d="M700 228.1L643 161.7L643 229Z" fill="#297ea6" stroke="#297ea6"></path><path d="M700 228.1L661 266.9L713 296.1Z" fill="#112e42" stroke="#112e42"></path><path d="M98 325.1L119 346.7L139 301.9Z" fill="#19435d" stroke="#19435d"></path><path d="M124 348.7L119 354.1L142 361.6Z" fill="#19435d" stroke="#19435d"></path><path d="M300 34.6L376 82.4L334 0Z" fill="#277297" stroke="#277297"></path><path d="M286 81.6L251 40.7L243 113.7Z" fill="#0c2435" stroke="#0c2435"></path><path d="M119 346.7L119 354.1L124 348.7Z" fill="#15384f" stroke="#15384f"></path><path d="M405 0L376 82.4L424 58.7Z" fill="#205a7a" stroke="#205a7a"></path><path d="M663 415.4L678 362L642 374.9Z" fill="#205a7a" stroke="#205a7a"></path><path d="M663 415.4L642 374.9L639 391.6Z" fill="#246688" stroke="#246688"></path><path d="M136 115.3L139 177.6L148 175.7Z" fill="#1d4e6b" stroke="#1d4e6b"></path><path d="M148 175.7L139 177.6L202 235Z" fill="#15384f" stroke="#15384f"></path><path d="M187 485.3L208 517.1L228 442.4Z" fill="#15384f" stroke="#15384f"></path><path d="M662 473.7L663 415.4L606 417.9Z" fill="#1d4e6b" stroke="#1d4e6b"></path><path d="M208 517.1L222 537.3L259 527.3Z" fill="#15384f" stroke="#15384f"></path><path d="M412 600L462 558.4L391 556.3Z" fill="#081a28" stroke="#081a28"></path><path d="M462 558.4L507 575.1L511 532.4Z" fill="#112e42" stroke="#112e42"></path><path d="M511 532.4L607 522.6L550 437.3Z" fill="#112e42" stroke="#112e42"></path><path d="M472 600L507 575.1L462 558.4Z" fill="#0c2435" stroke="#0c2435"></path><path d="M391 556.3L306 544.3L352 613.1Z" fill="#205a7a" stroke="#205a7a"></path><path d="M97 420.6L193 439.9L142 361.6Z" fill="#15384f" stroke="#15384f"></path><path d="M170 524.1L200 543.4L208 517.1Z" fill="#297ea6" stroke="#297ea6"></path><path d="M208 517.1L200 543.4L222 537.3Z" fill="#205a7a" stroke="#205a7a"></path><path d="M352 613.1L306 544.3L277 605.1Z" fill="#246688" stroke="#246688"></path><path d="M409 600L412 600L391 556.3Z" fill="#277297" stroke="#277297"></path><path d="M263 0L251 40.7L297 36.6Z" fill="#205a7a" stroke="#205a7a"></path><path d="M297 36.6L251 40.7L286 81.6Z" fill="#112e42" stroke="#112e42"></path><path d="M181 138.4L136 115.3L148 175.7Z" fill="#19435d" stroke="#19435d"></path><path d="M119 346.7L105 367.9L119 354.1Z" fill="#15384f" stroke="#15384f"></path><path d="M119 354.1L105 367.9L142 361.6Z" fill="#205a7a" stroke="#205a7a"></path><path d="M98 325.1L105 367.9L119 346.7Z" fill="#19435d" stroke="#19435d"></path><path d="M102 225.3L98 325.1L139 301.9Z" fill="#205a7a" stroke="#205a7a"></path><path d="M489 -12.1L424 58.7L474 61.9Z" fill="#1d4e6b" stroke="#1d4e6b"></path><path d="M300 34.6L297 0L297 36.6Z" fill="#246688" stroke="#246688"></path><path d="M412 600L443 600L462 558.4Z" fill="#081a28" stroke="#081a28"></path><path d="M586 558.3L607 522.6L511 532.4Z" fill="#112e42" stroke="#112e42"></path><path d="M405 0L358 0L376 82.4Z" fill="#081a28" stroke="#081a28"></path><path d="M139 177.6L102 225.3L202 235Z" fill="#277297" stroke="#277297"></path><path d="M443 600L472 600L462 558.4Z" fill="#246688" stroke="#246688"></path><path d="M412 600L442 604.1L443 600Z" fill="#246688" stroke="#246688"></path><path d="M409 600L442 604.1L412 600Z" fill="#277297" stroke="#277297"></path><path d="M524 600L531 577.1L507 575.1Z" fill="#297ea6" stroke="#297ea6"></path><path d="M507 575.1L531 577.1L511 532.4Z" fill="#15384f" stroke="#15384f"></path><path d="M442 604.1L472 600L443 600Z" fill="#0c2435" stroke="#0c2435"></path><path d="M358 0L334 0L376 82.4Z" fill="#297ea6" stroke="#297ea6"></path><path d="M713 296.1L670 290.3L678 309.1Z" fill="#1d4e6b" stroke="#1d4e6b"></path><path d="M713 296.1L661 266.9L670 290.3Z" fill="#00101c" stroke="#00101c"></path><path d="M405 0L352 -7.3L358 0Z" fill="#00101c" stroke="#00101c"></path><path d="M358 0L352 -7.3L334 0Z" fill="#277297" stroke="#277297"></path><path d="M170 524.1L208 517.1L187 485.3Z" fill="#277297" stroke="#277297"></path><path d="M242 600L277 605.1L254 540.3Z" fill="#19435d" stroke="#19435d"></path><path d="M277 605.1L306 544.3L254 540.3Z" fill="#112e42" stroke="#112e42"></path><path d="M409 600L352 613.1L442 604.1Z" fill="#00101c" stroke="#00101c"></path><path d="M727 366.9L713 296.1L678 309.1Z" fill="#0c2435" stroke="#0c2435"></path><path d="M717 296.9L713 296.1L746 337.1Z" fill="#112e42" stroke="#112e42"></path><path d="M607 522.6L662 473.7L606 417.9Z" fill="#081a28" stroke="#081a28"></path><path d="M663 415.4L727 366.9L678 362Z" fill="#081a28" stroke="#081a28"></path><path d="M83 450.6L148 494.4L156 469.4Z" fill="#081a28" stroke="#081a28"></path><path d="M156 469.4L148 494.4L187 485.3Z" fill="#19435d" stroke="#19435d"></path><path d="M251 40.7L162 90.4L243 113.7Z" fill="#112e42" stroke="#112e42"></path><path d="M139 177.6L105 179.1L102 225.3Z" fill="#297ea6" stroke="#297ea6"></path><path d="M531 577.1L553 578.1L511 532.4Z" fill="#19435d" stroke="#19435d"></path><path d="M607 522.6L680 491.3L662 473.7Z" fill="#081a28" stroke="#081a28"></path><path d="M524 600L553 578.1L531 577.1Z" fill="#297ea6" stroke="#297ea6"></path><path d="M136 115.3L105 179.1L139 177.6Z" fill="#297ea6" stroke="#297ea6"></path><path d="M162 90.4L144 110.7L181 138.4Z" fill="#15384f" stroke="#15384f"></path><path d="M352 -7.3L297 0L334 0Z" fill="#246688" stroke="#246688"></path><path d="M334 0L297 0L300 34.6Z" fill="#277297" stroke="#277297"></path><path d="M251 40.7L183 0L162 90.4Z" fill="#246688" stroke="#246688"></path><path d="M553 578.1L586 558.3L511 532.4Z" fill="#00101c" stroke="#00101c"></path><path d="M148 494.4L170 524.1L187 485.3Z" fill="#081a28" stroke="#081a28"></path><path d="M730 298.3L717 296.9L746 337.1Z" fill="#246688" stroke="#246688"></path><path d="M713 296.1L740 266.4L700 228.1Z" fill="#205a7a" stroke="#205a7a"></path><path d="M98 325.1L78 322.9L105 367.9Z" fill="#0c2435" stroke="#0c2435"></path><path d="M105 367.9L97 420.6L142 361.6Z" fill="#0c2435" stroke="#0c2435"></path><path d="M102 225.3L78 322.9L98 325.1Z" fill="#0c2435" stroke="#0c2435"></path><path d="M49 349.7L78 322.9L0 304.3Z" fill="#081a28" stroke="#081a28"></path><path d="M515 0L502 39.6L551 0Z" fill="#15384f" stroke="#15384f"></path><path d="M502 39.6L489 -12.1L474 61.9Z" fill="#081a28" stroke="#081a28"></path><path d="M405 0L489 -12.1L352 -7.3Z" fill="#246688" stroke="#246688"></path><path d="M502 39.6L561 116.9L551 0Z" fill="#0c2435" stroke="#0c2435"></path><path d="M144 110.7L136 115.3L181 138.4Z" fill="#205a7a" stroke="#205a7a"></path><path d="M101 88.9L136 115.3L144 110.7Z" fill="#277297" stroke="#277297"></path><path d="M561 116.9L598 147.6L630 50.6Z" fill="#0c2435" stroke="#0c2435"></path><path d="M508 0L489 -12.1L502 39.6Z" fill="#081a28" stroke="#081a28"></path><path d="M33 398.4L97 420.6L105 367.9Z" fill="#081a28" stroke="#081a28"></path><path d="M442 604.1L524 600L472 600Z" fill="#1d4e6b" stroke="#1d4e6b"></path><path d="M472 600L524 600L507 575.1Z" fill="#0c2435" stroke="#0c2435"></path><path d="M580 600L619 566.1L586 558.3Z" fill="#297ea6" stroke="#297ea6"></path><path d="M580 600L524 600L442 604.1Z" fill="#00101c" stroke="#00101c"></path><path d="M680 491.3L692 441.9L662 473.7Z" fill="#19435d" stroke="#19435d"></path><path d="M662 473.7L692 441.9L663 415.4Z" fill="#1d4e6b" stroke="#1d4e6b"></path><path d="M515 0L489 -12.1L508 0Z" fill="#0c2435" stroke="#0c2435"></path><path d="M242 600L254 540.3L232 600Z" fill="#297ea6" stroke="#297ea6"></path><path d="M254 540.3L222 537.3L232 600Z" fill="#277297" stroke="#277297"></path><path d="M240 -41.1L263 0L297 0Z" fill="#19435d" stroke="#19435d"></path><path d="M297 0L263 0L297 36.6Z" fill="#1d4e6b" stroke="#1d4e6b"></path><path d="M717 296.9L740 266.4L713 296.1Z" fill="#112e42" stroke="#112e42"></path><path d="M727 366.9L678 309.1L678 362Z" fill="#0c2435" stroke="#0c2435"></path><path d="M692 441.9L727 366.9L663 415.4Z" fill="#1d4e6b" stroke="#1d4e6b"></path><path d="M232 600L222 537.3L220 600Z" fill="#15384f" stroke="#15384f"></path><path d="M678 108.4L598 147.6L643 161.7Z" fill="#0c2435" stroke="#0c2435"></path><path d="M515 0L551 0L489 -12.1Z" fill="#0c2435" stroke="#0c2435"></path><path d="M730 200.6L710 168.3L700 228.1Z" fill="#19435d" stroke="#19435d"></path><path d="M700 228.1L710 168.3L643 161.7Z" fill="#19435d" stroke="#19435d"></path><path d="M680 538.4L680 491.3L607 522.6Z" fill="#205a7a" stroke="#205a7a"></path><path d="M692 441.9L733 367.7L727 366.9Z" fill="#246688" stroke="#246688"></path><path d="M710 168.3L678 108.4L643 161.7Z" fill="#00101c" stroke="#00101c"></path><path d="M765 391.6L733 367.7L692 441.9Z" fill="#1d4e6b" stroke="#1d4e6b"></path><path d="M727 366.9L746 337.1L713 296.1Z" fill="#081a28" stroke="#081a28"></path><path d="M220 600L222 537.3L200 543.4Z" fill="#297ea6" stroke="#297ea6"></path><path d="M242 600L232 600L277 605.1Z" fill="#19435d" stroke="#19435d"></path><path d="M640 54.6L630 50.6L598 147.6Z" fill="#15384f" stroke="#15384f"></path><path d="M136 115.3L84 165.6L105 179.1Z" fill="#15384f" stroke="#15384f"></path><path d="M105 179.1L57 201.3L102 225.3Z" fill="#205a7a" stroke="#205a7a"></path><path d="M808 267.4L740 266.4L730 298.3Z" fill="#15384f" stroke="#15384f"></path><path d="M730 298.3L740 266.4L717 296.9Z" fill="#19435d" stroke="#19435d"></path><path d="M580 600L586 558.3L553 578.1Z" fill="#00101c" stroke="#00101c"></path><path d="M586 558.3L619 566.1L607 522.6Z" fill="#205a7a" stroke="#205a7a"></path><path d="M678 108.4L640 54.6L598 147.6Z" fill="#0c2435" stroke="#0c2435"></path><path d="M630 50.6L586 0L561 116.9Z" fill="#277297" stroke="#277297"></path><path d="M717 119.3L683 105.6L678 108.4Z" fill="#00101c" stroke="#00101c"></path><path d="M678 108.4L683 105.6L640 54.6Z" fill="#15384f" stroke="#15384f"></path><path d="M732 207L730 200.6L700 228.1Z" fill="#00101c" stroke="#00101c"></path><path d="M710 168.3L717 119.3L678 108.4Z" fill="#0c2435" stroke="#0c2435"></path><path d="M736 216.1L732 207L700 228.1Z" fill="#297ea6" stroke="#297ea6"></path><path d="M195 600L200 543.4L170 524.1Z" fill="#081a28" stroke="#081a28"></path><path d="M195 600L220 600L200 543.4Z" fill="#297ea6" stroke="#297ea6"></path><path d="M232 600L220 600L277 605.1Z" fill="#0c2435" stroke="#0c2435"></path><path d="M277 605.1L131 607.1L352 613.1Z" fill="#277297" stroke="#277297"></path><path d="M116 512.3L170 524.1L148 494.4Z" fill="#081a28" stroke="#081a28"></path><path d="M41 427.7L83 450.6L97 420.6Z" fill="#0c2435" stroke="#0c2435"></path><path d="M97 420.6L83 450.6L156 469.4Z" fill="#00101c" stroke="#00101c"></path><path d="M740 266.4L736 216.1L700 228.1Z" fill="#0c2435" stroke="#0c2435"></path><path d="M732 207L753 166.7L730 200.6Z" fill="#15384f" stroke="#15384f"></path><path d="M263 0L223 0L251 40.7Z" fill="#112e42" stroke="#112e42"></path><path d="M162 90.4L101 88.9L144 110.7Z" fill="#205a7a" stroke="#205a7a"></path><path d="M136 115.3L101 88.9L84 165.6Z" fill="#081a28" stroke="#081a28"></path><path d="M183 -8.1L223 0L212 -54.1Z" fill="#1d4e6b" stroke="#1d4e6b"></path><path d="M524 600L580 600L553 578.1Z" fill="#246688" stroke="#246688"></path><path d="M352 613.1L580 600L442 604.1Z" fill="#081a28" stroke="#081a28"></path><path d="M733 367.7L746 337.1L727 366.9Z" fill="#246688" stroke="#246688"></path><path d="M847 184.3L753 166.7L736 216.1Z" fill="#0c2435" stroke="#0c2435"></path><path d="M83 450.6L116 512.3L148 494.4Z" fill="#246688" stroke="#246688"></path><path d="M52 215L78 322.9L102 225.3Z" fill="#1d4e6b" stroke="#1d4e6b"></path><path d="M78 322.9L49 349.7L105 367.9Z" fill="#19435d" stroke="#19435d"></path><path d="M602 -1.3L586 0L630 50.6Z" fill="#19435d" stroke="#19435d"></path><path d="M551 0L586 0L489 -12.1Z" fill="#205a7a" stroke="#205a7a"></path><path d="M84 165.6L57 201.3L105 179.1Z" fill="#15384f" stroke="#15384f"></path><path d="M57 201.3L52 215L102 225.3Z" fill="#00101c" stroke="#00101c"></path><path d="M41 427.7L75 462.4L83 450.6Z" fill="#246688" stroke="#246688"></path><path d="M83 450.6L75 462.4L116 512.3Z" fill="#112e42" stroke="#112e42"></path><path d="M131 607.1L195 600L170 524.1Z" fill="#00101c" stroke="#00101c"></path><path d="M220 600L131 607.1L277 605.1Z" fill="#112e42" stroke="#112e42"></path><path d="M638 25.7L630 50.6L640 54.6Z" fill="#0c2435" stroke="#0c2435"></path><path d="M638 25.7L602 -1.3L630 50.6Z" fill="#19435d" stroke="#19435d"></path><path d="M586 0L602 -1.3L489 -12.1Z" fill="#00101c" stroke="#00101c"></path><path d="M84 165.6L52 129.3L57 201.3Z" fill="#19435d" stroke="#19435d"></path><path d="M94 49.9L101 88.9L162 90.4Z" fill="#0c2435" stroke="#0c2435"></path><path d="M697 11.9L638 25.7L640 54.6Z" fill="#0c2435" stroke="#0c2435"></path><path d="M717 498.1L725 468.4L680 491.3Z" fill="#081a28" stroke="#081a28"></path><path d="M680 491.3L725 468.4L692 441.9Z" fill="#19435d" stroke="#19435d"></path><path d="M733 367.7L765 391.6L746 337.1Z" fill="#297ea6" stroke="#297ea6"></path><path d="M749 140.6L717 119.3L710 168.3Z" fill="#205a7a" stroke="#205a7a"></path><path d="M683 105.6L697 11.9L640 54.6Z" fill="#19435d" stroke="#19435d"></path><path d="M753 166.7L710 168.3L730 200.6Z" fill="#081a28" stroke="#081a28"></path><path d="M638 600L680 538.4L619 566.1Z" fill="#0c2435" stroke="#0c2435"></path><path d="M619 566.1L680 538.4L607 522.6Z" fill="#277297" stroke="#277297"></path><path d="M183 -8.1L183 0L223 0Z" fill="#205a7a" stroke="#205a7a"></path><path d="M223 0L183 0L251 40.7Z" fill="#00101c" stroke="#00101c"></path><path d="M352 613.1L622 600L580 600Z" fill="#081a28" stroke="#081a28"></path><path d="M580 600L622 600L619 566.1Z" fill="#246688" stroke="#246688"></path><path d="M712 508.6L717 498.1L680 491.3Z" fill="#277297" stroke="#277297"></path><path d="M680 538.4L712 508.6L680 491.3Z" fill="#1d4e6b" stroke="#1d4e6b"></path><path d="M741 540.1L712 508.6L680 538.4Z" fill="#297ea6" stroke="#297ea6"></path><path d="M697 11.9L623 0L638 25.7Z" fill="#246688" stroke="#246688"></path><path d="M638 25.7L623 0L602 -1.3Z" fill="#297ea6" stroke="#297ea6"></path><path d="M602 -1.3L900 -22.1L489 -12.1Z" fill="#081a28" stroke="#081a28"></path><path d="M240 -41.1L223 0L263 0Z" fill="#1d4e6b" stroke="#1d4e6b"></path><path d="M142 0L94 49.9L162 90.4Z" fill="#00101c" stroke="#00101c"></path><path d="M240 -41.1L297 0L352 -7.3Z" fill="#081a28" stroke="#081a28"></path><path d="M212 -54.1L240 -41.1L489 -12.1Z" fill="#081a28" stroke="#081a28"></path><path d="M489 -12.1L240 -41.1L352 -7.3Z" fill="#112e42" stroke="#112e42"></path><path d="M0 399L33 398.4L49 349.7Z" fill="#081a28" stroke="#081a28"></path><path d="M49 349.7L33 398.4L105 367.9Z" fill="#00101c" stroke="#00101c"></path><path d="M771 410.9L692 441.9L725 468.4Z" fill="#15384f" stroke="#15384f"></path><path d="M771 410.9L765 391.6L692 441.9Z" fill="#19435d" stroke="#19435d"></path><path d="M746 337.1L808 267.4L730 298.3Z" fill="#297ea6" stroke="#297ea6"></path><path d="M75 462.4L41 491.6L116 512.3Z" fill="#0c2435" stroke="#0c2435"></path><path d="M33 398.4L41 427.7L97 420.6Z" fill="#00101c" stroke="#00101c"></path><path d="M736 216.1L753 166.7L732 207Z" fill="#15384f" stroke="#15384f"></path><path d="M808 267.4L736 216.1L740 266.4Z" fill="#15384f" stroke="#15384f"></path><path d="M749 140.6L722 98.9L717 119.3Z" fill="#112e42" stroke="#112e42"></path><path d="M717 119.3L722 98.9L683 105.6Z" fill="#0c2435" stroke="#0c2435"></path><path d="M352 613.1L638 600L622 600Z" fill="#081a28" stroke="#081a28"></path><path d="M622 600L638 600L619 566.1Z" fill="#205a7a" stroke="#205a7a"></path><path d="M792 143.7L753 154.4L753 166.7Z" fill="#1d4e6b" stroke="#1d4e6b"></path><path d="M753 166.7L753 154.4L710 168.3Z" fill="#277297" stroke="#277297"></path><path d="M753 154.4L749 140.6L710 168.3Z" fill="#297ea6" stroke="#297ea6"></path><path d="M44 112.6L52 129.3L101 88.9Z" fill="#297ea6" stroke="#297ea6"></path><path d="M101 88.9L52 129.3L84 165.6Z" fill="#0c2435" stroke="#0c2435"></path><path d="M11 226L12 227.6L52 215Z" fill="#15384f" stroke="#15384f"></path><path d="M52 215L8 248.4L78 322.9Z" fill="#00101c" stroke="#00101c"></path><path d="M757 477.4L725 468.4L717 498.1Z" fill="#246688" stroke="#246688"></path><path d="M772 459.6L771 410.9L725 468.4Z" fill="#297ea6" stroke="#297ea6"></path><path d="M765 391.6L777 392L746 337.1Z" fill="#205a7a" stroke="#205a7a"></path><path d="M771 410.9L777 392L765 391.6Z" fill="#112e42" stroke="#112e42"></path><path d="M11 226L52 215L0 196.6Z" fill="#00101c" stroke="#00101c"></path><path d="M12 227.6L8 248.4L52 215Z" fill="#081a28" stroke="#081a28"></path><path d="M0 196.6L52 215L57 201.3Z" fill="#081a28" stroke="#081a28"></path><path d="M12 227.6L11 226L8 248.4Z" fill="#0c2435" stroke="#0c2435"></path><path d="M142 0L162 90.4L183 0Z" fill="#19435d" stroke="#19435d"></path><path d="M212 -54.1L142 0L183 -8.1Z" fill="#00101c" stroke="#00101c"></path><path d="M183 -8.1L142 0L183 0Z" fill="#081a28" stroke="#081a28"></path><path d="M0 282.9L0 304.3L78 322.9Z" fill="#205a7a" stroke="#205a7a"></path><path d="M0 469.4L41 491.6L41 427.7Z" fill="#19435d" stroke="#19435d"></path><path d="M0 282.9L78 322.9L8 248.4Z" fill="#0c2435" stroke="#0c2435"></path><path d="M0 257.1L0 282.9L8 248.4Z" fill="#081a28" stroke="#081a28"></path><path d="M741 540.1L757 477.4L717 498.1Z" fill="#081a28" stroke="#081a28"></path><path d="M771 410.9L841 381.6L777 392Z" fill="#277297" stroke="#277297"></path><path d="M741 540.1L717 498.1L712 508.6Z" fill="#205a7a" stroke="#205a7a"></path><path d="M11 226L0 257.1L8 248.4Z" fill="#277297" stroke="#277297"></path><path d="M53 67.9L44 112.6L101 88.9Z" fill="#1d4e6b" stroke="#1d4e6b"></path><path d="M52 129.3L0 196.6L57 201.3Z" fill="#112e42" stroke="#112e42"></path><path d="M11 226L0 196.6L0 257.1Z" fill="#15384f" stroke="#15384f"></path><path d="M900 -22.1L212 -54.1L489 -12.1Z" fill="#15384f" stroke="#15384f"></path><path d="M240 -41.1L212 -54.1L223 0Z" fill="#081a28" stroke="#081a28"></path><path d="M0 421.7L41 427.7L33 398.4Z" fill="#112e42" stroke="#112e42"></path><path d="M41 427.7L41 491.6L75 462.4Z" fill="#112e42" stroke="#112e42"></path><path d="M93 578.1L131 607.1L170 524.1Z" fill="#1d4e6b" stroke="#1d4e6b"></path><path d="M93 578.1L170 524.1L116 512.3Z" fill="#15384f" stroke="#15384f"></path><path d="M195 600L131 607.1L220 600Z" fill="#246688" stroke="#246688"></path><path d="M757 477.4L772 459.6L725 468.4Z" fill="#19435d" stroke="#19435d"></path><path d="M-24 380L0 399L49 349.7Z" fill="#0c2435" stroke="#0c2435"></path><path d="M834 332.6L746 337.1L777 392Z" fill="#081a28" stroke="#081a28"></path><path d="M834 332.6L808 267.4L746 337.1Z" fill="#19435d" stroke="#19435d"></path><path d="M753 154.4L792 143.7L749 140.6Z" fill="#00101c" stroke="#00101c"></path><path d="M0 116.7L0 196.6L52 129.3Z" fill="#246688" stroke="#246688"></path><path d="M41 491.6L93 578.1L116 512.3Z" fill="#277297" stroke="#277297"></path><path d="M0 399L0 421.7L33 398.4Z" fill="#112e42" stroke="#112e42"></path><path d="M722 98.9L697 11.9L683 105.6Z" fill="#15384f" stroke="#15384f"></path><path d="M733 0L697 11.9L722 98.9Z" fill="#1d4e6b" stroke="#1d4e6b"></path><path d="M806 111.6L722 98.9L749 140.6Z" fill="#00101c" stroke="#00101c"></path><path d="M94 49.9L53 67.9L101 88.9Z" fill="#1d4e6b" stroke="#1d4e6b"></path><path d="M44 112.6L0 116.7L52 129.3Z" fill="#205a7a" stroke="#205a7a"></path><path d="M50 37.7L53 67.9L94 49.9Z" fill="#081a28" stroke="#081a28"></path><path d="M50 37.7L94 49.9L47 0Z" fill="#297ea6" stroke="#297ea6"></path><path d="M757 477.4L837 482.7L772 459.6Z" fill="#15384f" stroke="#15384f"></path><path d="M751 552.3L741 540.1L740 600.1Z" fill="#19435d" stroke="#19435d"></path><path d="M0 421.7L0 440.6L41 427.7Z" fill="#297ea6" stroke="#297ea6"></path><path d="M84 600L87 600L93 578.1Z" fill="#1d4e6b" stroke="#1d4e6b"></path><path d="M847 184.3L792 143.7L753 166.7Z" fill="#297ea6" stroke="#297ea6"></path><path d="M0 304.3L-24 380L49 349.7Z" fill="#19435d" stroke="#19435d"></path><path d="M0 399L-24 380L0 421.7Z" fill="#0c2435" stroke="#0c2435"></path><path d="M0 421.7L-45 372.9L0 440.6Z" fill="#00101c" stroke="#00101c"></path><path d="M-45 372.9L-24 380L0 304.3Z" fill="#205a7a" stroke="#205a7a"></path><path d="M-45 372.9L0 304.3L0 282.9Z" fill="#246688" stroke="#246688"></path><path d="M-45 372.9L0 282.9L0 257.1Z" fill="#277297" stroke="#277297"></path><path d="M84 600L93 578.1L18 600Z" fill="#112e42" stroke="#112e42"></path><path d="M93 578.1L90 604.1L131 607.1Z" fill="#205a7a" stroke="#205a7a"></path><path d="M87 600L90 604.1L93 578.1Z" fill="#246688" stroke="#246688"></path><path d="M-45 372.9L0 469.4L0 440.6Z" fill="#081a28" stroke="#081a28"></path><path d="M0 440.6L0 469.4L41 427.7Z" fill="#19435d" stroke="#19435d"></path><path d="M740 600.1L741 540.1L680 538.4Z" fill="#00101c" stroke="#00101c"></path><path d="M741 540.1L751 552.3L757 477.4Z" fill="#0c2435" stroke="#0c2435"></path><path d="M0 544.1L93 578.1L41 491.6Z" fill="#205a7a" stroke="#205a7a"></path><path d="M87 600L84 600L90 604.1Z" fill="#205a7a" stroke="#205a7a"></path><path d="M47 0L94 49.9L142 0Z" fill="#1d4e6b" stroke="#1d4e6b"></path><path d="M0 113.4L0 116.7L44 112.6Z" fill="#297ea6" stroke="#297ea6"></path><path d="M841 381.6L771 410.9L849 467.1Z" fill="#246688" stroke="#246688"></path><path d="M841 381.6L834 332.6L777 392Z" fill="#1d4e6b" stroke="#1d4e6b"></path><path d="M847 184.3L806 111.6L792 143.7Z" fill="#0c2435" stroke="#0c2435"></path><path d="M0 113.4L44 112.6L4 82.4Z" fill="#1d4e6b" stroke="#1d4e6b"></path><path d="M0 196.6L-45 372.9L0 257.1Z" fill="#081a28" stroke="#081a28"></path><path d="M22 64.7L44 112.6L53 67.9Z" fill="#112e42" stroke="#112e42"></path><path d="M0 116.7L-45 372.9L0 196.6Z" fill="#246688" stroke="#246688"></path><path d="M50 37.7L22 64.7L53 67.9Z" fill="#081a28" stroke="#081a28"></path><path d="M-14 0L-45 372.9L0 116.7Z" fill="#19435d" stroke="#19435d"></path><path d="M-24 380L-45 372.9L0 421.7Z" fill="#1d4e6b" stroke="#1d4e6b"></path><path d="M847 184.3L736 216.1L808 267.4Z" fill="#205a7a" stroke="#205a7a"></path><path d="M792 143.7L806 111.6L749 140.6Z" fill="#277297" stroke="#277297"></path><path d="M849 467.1L771 410.9L772 459.6Z" fill="#00101c" stroke="#00101c"></path><path d="M900 270.1L852 235.4L808 267.4Z" fill="#19435d" stroke="#19435d"></path><path d="M802 59.7L733 0L722 98.9Z" fill="#246688" stroke="#246688"></path><path d="M697 11.9L733 0L623 0Z" fill="#1d4e6b" stroke="#1d4e6b"></path><path d="M623 0L900 -22.1L602 -1.3Z" fill="#277297" stroke="#277297"></path><path d="M22 64.7L4 82.4L44 112.6Z" fill="#081a28" stroke="#081a28"></path><path d="M0 113.4L-14 0L0 116.7Z" fill="#246688" stroke="#246688"></path><path d="M900 607.3L740 600.1L638 600Z" fill="#081a28" stroke="#081a28"></path><path d="M638 600L740 600.1L680 538.4Z" fill="#00101c" stroke="#00101c"></path><path d="M751 552.3L837 482.7L757 477.4Z" fill="#1d4e6b" stroke="#1d4e6b"></path><path d="M740 600.1L756 588.3L751 552.3Z" fill="#246688" stroke="#246688"></path><path d="M877 239L852 235.4L900 270.1Z" fill="#205a7a" stroke="#205a7a"></path><path d="M756 588.3L768 574.1L751 552.3Z" fill="#19435d" stroke="#19435d"></path><path d="M212 -54.1L47 0L142 0Z" fill="#1d4e6b" stroke="#1d4e6b"></path><path d="M50 37.7L0 0L22 64.7Z" fill="#297ea6" stroke="#297ea6"></path><path d="M22 64.7L-14 0L4 82.4Z" fill="#081a28" stroke="#081a28"></path><path d="M740 600.1L759 592.3L756 588.3Z" fill="#19435d" stroke="#19435d"></path><path d="M756 588.3L759 592.3L768 574.1Z" fill="#277297" stroke="#277297"></path><path d="M852 235.4L847 184.3L808 267.4Z" fill="#1d4e6b" stroke="#1d4e6b"></path><path d="M-45 372.9L0 544.1L0 469.4Z" fill="#297ea6" stroke="#297ea6"></path><path d="M0 469.4L0 544.1L41 491.6Z" fill="#0c2435" stroke="#0c2435"></path><path d="M84 600L18 600L90 604.1Z" fill="#081a28" stroke="#081a28"></path><path d="M835 56.9L813 80.9L900 104.6Z" fill="#00101c" stroke="#00101c"></path><path d="M806 111.6L802 59.7L722 98.9Z" fill="#1d4e6b" stroke="#1d4e6b"></path><path d="M813 80.9L802 59.7L806 111.6Z" fill="#205a7a" stroke="#205a7a"></path><path d="M854 504.3L751 552.3L768 574.1Z" fill="#297ea6" stroke="#297ea6"></path><path d="M854 504.3L837 482.7L751 552.3Z" fill="#246688" stroke="#246688"></path><path d="M900 298.7L808 267.4L834 332.6Z" fill="#081a28" stroke="#081a28"></path><path d="M854 504.3L849 467.1L837 482.7Z" fill="#277297" stroke="#277297"></path><path d="M837 482.7L849 467.1L772 459.6Z" fill="#00101c" stroke="#00101c"></path><path d="M852 235.4L877 239L847 184.3Z" fill="#246688" stroke="#246688"></path><path d="M900 104.6L813 80.9L806 111.6Z" fill="#0c2435" stroke="#0c2435"></path><path d="M900 299L834 332.6L841 381.6Z" fill="#112e42" stroke="#112e42"></path><path d="M0 544.1L18 600L93 578.1Z" fill="#1d4e6b" stroke="#1d4e6b"></path><path d="M90 604.1L0 600L131 607.1Z" fill="#205a7a" stroke="#205a7a"></path><path d="M759 592.3L786 600L768 574.1Z" fill="#19435d" stroke="#19435d"></path><path d="M740 600.1L786 600L759 592.3Z" fill="#112e42" stroke="#112e42"></path><path d="M900 607.3L786 600L740 600.1Z" fill="#246688" stroke="#246688"></path><path d="M835 56.9L802 59.7L813 80.9Z" fill="#246688" stroke="#246688"></path><path d="M800 0L786 0L802 59.7Z" fill="#081a28" stroke="#081a28"></path><path d="M802 59.7L786 0L733 0Z" fill="#19435d" stroke="#19435d"></path><path d="M733 0L900 -22.1L623 0Z" fill="#081a28" stroke="#081a28"></path><path d="M-45 372.9L0 599.3L0 544.1Z" fill="#246688" stroke="#246688"></path><path d="M0 544.1L0 599.3L18 600Z" fill="#277297" stroke="#277297"></path><path d="M18 600L0 600L90 604.1Z" fill="#112e42" stroke="#112e42"></path><path d="M-45 372.9L0 600L0 599.3Z" fill="#246688" stroke="#246688"></path><path d="M0 599.3L0 600L18 600Z" fill="#205a7a" stroke="#205a7a"></path><path d="M813 600L854 504.3L768 574.1Z" fill="#205a7a" stroke="#205a7a"></path><path d="M900 416.6L900 299L841 381.6Z" fill="#246688" stroke="#246688"></path><path d="M0 -15.1L0 0L47 0Z" fill="#112e42" stroke="#112e42"></path><path d="M47 0L0 0L50 37.7Z" fill="#15384f" stroke="#15384f"></path><path d="M4 82.4L-14 0L0 113.4Z" fill="#246688" stroke="#246688"></path><path d="M900 156.3L806 111.6L847 184.3Z" fill="#19435d" stroke="#19435d"></path><path d="M900 416.6L841 381.6L900 423.9Z" fill="#0c2435" stroke="#0c2435"></path><path d="M877 239L907 197.3L847 184.3Z" fill="#1d4e6b" stroke="#1d4e6b"></path><path d="M900 299L900 298.7L834 332.6Z" fill="#277297" stroke="#277297"></path><path d="M835 56.9L800 0L802 59.7Z" fill="#0c2435" stroke="#0c2435"></path><path d="M786 0L823 -6.1L733 0Z" fill="#0c2435" stroke="#0c2435"></path><path d="M900 298.7L900 270.1L808 267.4Z" fill="#246688" stroke="#246688"></path><path d="M212 -54.1L0 -15.1L47 0Z" fill="#1d4e6b" stroke="#1d4e6b"></path><path d="M0 0L-14 0L22 64.7Z" fill="#1d4e6b" stroke="#1d4e6b"></path><path d="M0 -15.1L-14 0L0 0Z" fill="#277297" stroke="#277297"></path><path d="M786 600L813 600L768 574.1Z" fill="#15384f" stroke="#15384f"></path><path d="M900 607.3L813 600L786 600Z" fill="#15384f" stroke="#15384f"></path><path d="M951 335.7L900 270.1L900 298.7Z" fill="#0c2435" stroke="#0c2435"></path><path d="M951 335.7L909 245.1L900 270.1Z" fill="#205a7a" stroke="#205a7a"></path><path d="M900 270.1L909 245.1L877 239Z" fill="#277297" stroke="#277297"></path><path d="M900 423.9L849 467.1L900 484.4Z" fill="#205a7a" stroke="#205a7a"></path><path d="M900 423.9L841 381.6L849 467.1Z" fill="#15384f" stroke="#15384f"></path><path d="M951 335.7L926 203.4L909 245.1Z" fill="#246688" stroke="#246688"></path><path d="M900 484.4L849 467.1L854 504.3Z" fill="#19435d" stroke="#19435d"></path><path d="M951 335.7L900 298.7L900 299Z" fill="#112e42" stroke="#112e42"></path><path d="M909 245.1L907 197.3L877 239Z" fill="#297ea6" stroke="#297ea6"></path><path d="M907 197.3L900 156.3L847 184.3Z" fill="#15384f" stroke="#15384f"></path><path d="M835 56.9L823 -6.1L800 0Z" fill="#246688" stroke="#246688"></path><path d="M900 20.7L823 -6.1L835 56.9Z" fill="#19435d" stroke="#19435d"></path><path d="M800 0L823 -6.1L786 0Z" fill="#246688" stroke="#246688"></path><path d="M900 607.3L834 600L813 600Z" fill="#297ea6" stroke="#297ea6"></path><path d="M813 600L834 600L854 504.3Z" fill="#00101c" stroke="#00101c"></path><path d="M900 503.1L900 484.4L854 504.3Z" fill="#081a28" stroke="#081a28"></path><path d="M951 335.7L900 299L900 416.6Z" fill="#19435d" stroke="#19435d"></path><path d="M909 245.1L926 203.4L907 197.3Z" fill="#19435d" stroke="#19435d"></path><path d="M907 197.3L926 203.4L900 156.3Z" fill="#0c2435" stroke="#0c2435"></path><path d="M900 156.3L900 104.6L806 111.6Z" fill="#297ea6" stroke="#297ea6"></path><path d="M951 335.7L900 416.6L954 500.4Z" fill="#1d4e6b" stroke="#1d4e6b"></path><path d="M926 203.4L900 104.6L900 156.3Z" fill="#112e42" stroke="#112e42"></path><path d="M912 529.3L900 503.1L854 504.3Z" fill="#00101c" stroke="#00101c"></path><path d="M954 500.4L900 416.6L900 423.9Z" fill="#112e42" stroke="#112e42"></path><path d="M917 6.9L900 72.4L923 0Z" fill="#15384f" stroke="#15384f"></path><path d="M900 104.6L900 72.4L835 56.9Z" fill="#00101c" stroke="#00101c"></path><path d="M954 500.4L900 423.9L900 484.4Z" fill="#277297" stroke="#277297"></path><path d="M834 600L912 529.3L854 504.3Z" fill="#205a7a" stroke="#205a7a"></path><path d="M900 503.1L954 500.4L900 484.4Z" fill="#00101c" stroke="#00101c"></path><path d="M917 6.9L900 20.7L900 72.4Z" fill="#297ea6" stroke="#297ea6"></path><path d="M900 72.4L900 20.7L835 56.9Z" fill="#246688" stroke="#246688"></path><path d="M900 0L900 20.7L917 6.9Z" fill="#0c2435" stroke="#0c2435"></path><path d="M900 607.3L900 600L834 600Z" fill="#00101c" stroke="#00101c"></path><path d="M834 600L900 600L912 529.3Z" fill="#112e42" stroke="#112e42"></path><path d="M912 529.3L954 500.4L900 503.1Z" fill="#277297" stroke="#277297"></path><path d="M900 72.4L900 104.6L923 0Z" fill="#081a28" stroke="#081a28"></path><path d="M900 20.7L900 0L823 -6.1Z" fill="#15384f" stroke="#15384f"></path><path d="M900 607.3L904 600L900 600Z" fill="#246688" stroke="#246688"></path><path d="M900 600L904 600L912 529.3Z" fill="#19435d" stroke="#19435d"></path><path d="M352 613.1L900 607.3L638 600Z" fill="#1d4e6b" stroke="#1d4e6b"></path><path d="M904 600L954 500.4L912 529.3Z" fill="#19435d" stroke="#19435d"></path><path d="M923 0L900 104.6L926 203.4Z" fill="#297ea6" stroke="#297ea6"></path><path d="M923 0L900 -22.1L900 0Z" fill="#205a7a" stroke="#205a7a"></path><path d="M900 0L900 -22.1L823 -6.1Z" fill="#205a7a" stroke="#205a7a"></path><path d="M823 -6.1L900 -22.1L733 0Z" fill="#246688" stroke="#246688"></path><path d="M951 335.7L923 0L926 203.4Z" fill="#0c2435" stroke="#0c2435"></path><path d="M917 6.9L923 0L900 0Z" fill="#297ea6" stroke="#297ea6"></path></g></svg>